<?xml version="1.0"?>
<svg xmlns="http://www.w3.org/2000/svg" xmlns:xlink="http://www.w3.org/1999/xlink" xmlns:svgjs="http://svgjs.com/svgjs" version="1.1" width="512" height="512" x="0" y="0" viewBox="0 0 512 512" style="enable-background:new 0 0 512 512" xml:space="preserve" class=""><g><g xmlns="http://www.w3.org/2000/svg"><path d="m482 226c0-124.816-101.184-226-226-226l-113 226 113 286 49.008-65.345c101.251-22.389 176.992-112.67 176.992-220.655z" fill="#f1adb6" data-original="#cc3245" style="" class=""/><path d="m30 226c0 107.985 75.741 198.266 176.991 220.655l49.009 65.345v-512c-124.816 0-226 101.184-226 226z" fill="#ffffff" data-original="#ff3e3a" style="" class=""/><path d="m256 60-83 166 83 166c91.679 0 166-74.321 166-166s-74.321-166-166-166z" fill="#000000" data-original="#c4f3ff" style="" class=""/><path d="m90 226c0 91.679 74.321 166 166 166v-332c-91.679 0-166 74.321-166 166z" fill="#000000" data-original="#ffffff" style="" class=""/></g></g></svg>
