<?xml version="1.0" standalone="no"?>
<!DOCTYPE svg PUBLIC "-//W3C//DTD SVG 20010904//EN"
 "http://www.w3.org/TR/2001/REC-SVG-20010904/DTD/svg10.dtd">
<svg version="1.0" xmlns="http://www.w3.org/2000/svg"
 width="708.000000pt" height="708.000000pt" viewBox="0 0 708.000000 708.000000"
 preserveAspectRatio="xMidYMid meet">
<metadata>
Created by potrace 1.11, written by Peter Selinger 2001-2013
</metadata>
<g transform="translate(0.000000,708.000000) scale(0.100000,-0.100000)"
fill="#000000" stroke="none">
<path d="M1305 4072 l0 -1647 23 -105 c62 -282 198 -529 416 -757 360 -378
881 -619 1484 -689 169 -20 561 -14 720 10 864 132 1549 626 1766 1277 74 221
69 88 73 1917 l4 1642 -943 0 c-609 0 -959 -4 -988 -11 -98 -22 -201 -95 -252
-178 -12 -19 -32 -62 -44 -95 -13 -34 -23 -52 -24 -41 -2 73 -115 213 -216
267 -110 59 -83 58 -1094 58 l-925 0 0 -1648z m1815 -479 c0 -797 4 -1325 10
-1368 41 -292 340 -455 603 -331 106 50 201 174 226 294 8 36 11 446 11 1355
0 716 3 1312 6 1325 l6 22 469 0 469 0 3 -1197 c3 -1666 4 -1574 -17 -1673
-59 -286 -184 -520 -385 -720 -240 -238 -519 -368 -858 -400 -268 -25 -578 45
-805 181 -350 211 -581 532 -663 924 -28 133 -34 413 -34 1678 l-1 1207 480 0
480 0 0 -1297z"/>
</g>
</svg>
